<mxfile host="app.diagrams.net" agent="Mozilla/5.0 (Windows NT 10.0; Win64; x64) AppleWebKit/537.36 (KHTML, like Gecko) Chrome/135.0.0.0 Safari/537.36 Edg/135.0.0.0" version="26.2.12">
  <diagram name="Page-1" id="w7eVgh4oU10uuCseW1sL">
    <mxGraphModel dx="1328" dy="828" grid="1" gridSize="10" guides="1" tooltips="1" connect="1" arrows="1" fold="1" page="1" pageScale="1" pageWidth="1654" pageHeight="2336" math="0" shadow="0">
      <root>
        <mxCell id="0" />
        <mxCell id="1" parent="0" />
        <mxCell id="DeTjyNVU-hH-8oNCQ5Ce-1" value="tìm kiếm sản phẩm" style="shape=umlFrame;whiteSpace=wrap;html=1;pointerEvents=0;width=100;height=30;" vertex="1" parent="1">
          <mxGeometry x="70" y="80" width="1120" height="750" as="geometry" />
        </mxCell>
        <mxCell id="DeTjyNVU-hH-8oNCQ5Ce-2" value="" style="shape=umlLifeline;perimeter=lifelinePerimeter;whiteSpace=wrap;html=1;container=1;dropTarget=0;collapsible=0;recursiveResize=0;outlineConnect=0;portConstraint=eastwest;newEdgeStyle={&quot;curved&quot;:0,&quot;rounded&quot;:0};participant=umlActor;size=50;" vertex="1" parent="1">
          <mxGeometry x="170" y="180" width="20" height="860" as="geometry" />
        </mxCell>
        <mxCell id="DeTjyNVU-hH-8oNCQ5Ce-3" value="khách hàng" style="text;html=1;align=center;verticalAlign=middle;resizable=0;points=[];autosize=1;strokeColor=none;fillColor=none;fontSize=15;" vertex="1" parent="1">
          <mxGeometry x="134" y="130" width="100" height="30" as="geometry" />
        </mxCell>
        <mxCell id="DeTjyNVU-hH-8oNCQ5Ce-4" value="Giao diện tìm kiếm hàng" style="shape=umlLifeline;perimeter=lifelinePerimeter;whiteSpace=wrap;html=1;container=1;dropTarget=0;collapsible=0;recursiveResize=0;outlineConnect=0;portConstraint=eastwest;newEdgeStyle={&quot;curved&quot;:0,&quot;rounded&quot;:0};" vertex="1" parent="1">
          <mxGeometry x="420" y="180" width="100" height="840" as="geometry" />
        </mxCell>
        <mxCell id="DeTjyNVU-hH-8oNCQ5Ce-7" value="" style="html=1;points=[[0,0,0,0,5],[0,1,0,0,-5],[1,0,0,0,5],[1,1,0,0,-5]];perimeter=orthogonalPerimeter;outlineConnect=0;targetShapes=umlLifeline;portConstraint=eastwest;newEdgeStyle={&quot;curved&quot;:0,&quot;rounded&quot;:0};" vertex="1" parent="DeTjyNVU-hH-8oNCQ5Ce-4">
          <mxGeometry x="45" y="90" width="10" height="150" as="geometry" />
        </mxCell>
        <mxCell id="DeTjyNVU-hH-8oNCQ5Ce-16" value="" style="html=1;points=[[0,0,0,0,5],[0,1,0,0,-5],[1,0,0,0,5],[1,1,0,0,-5]];perimeter=orthogonalPerimeter;outlineConnect=0;targetShapes=umlLifeline;portConstraint=eastwest;newEdgeStyle={&quot;curved&quot;:0,&quot;rounded&quot;:0};" vertex="1" parent="DeTjyNVU-hH-8oNCQ5Ce-4">
          <mxGeometry x="45" y="280" width="10" height="140" as="geometry" />
        </mxCell>
        <mxCell id="DeTjyNVU-hH-8oNCQ5Ce-26" value="" style="html=1;points=[[0,0,0,0,5],[0,1,0,0,-5],[1,0,0,0,5],[1,1,0,0,-5]];perimeter=orthogonalPerimeter;outlineConnect=0;targetShapes=umlLifeline;portConstraint=eastwest;newEdgeStyle={&quot;curved&quot;:0,&quot;rounded&quot;:0};" vertex="1" parent="DeTjyNVU-hH-8oNCQ5Ce-4">
          <mxGeometry x="45" y="470" width="10" height="110" as="geometry" />
        </mxCell>
        <mxCell id="DeTjyNVU-hH-8oNCQ5Ce-5" value="Xử lý hàng" style="shape=umlLifeline;perimeter=lifelinePerimeter;whiteSpace=wrap;html=1;container=1;dropTarget=0;collapsible=0;recursiveResize=0;outlineConnect=0;portConstraint=eastwest;newEdgeStyle={&quot;curved&quot;:0,&quot;rounded&quot;:0};" vertex="1" parent="1">
          <mxGeometry x="700" y="180" width="100" height="860" as="geometry" />
        </mxCell>
        <mxCell id="DeTjyNVU-hH-8oNCQ5Ce-9" value="" style="html=1;points=[[0,0,0,0,5],[0,1,0,0,-5],[1,0,0,0,5],[1,1,0,0,-5]];perimeter=orthogonalPerimeter;outlineConnect=0;targetShapes=umlLifeline;portConstraint=eastwest;newEdgeStyle={&quot;curved&quot;:0,&quot;rounded&quot;:0};" vertex="1" parent="DeTjyNVU-hH-8oNCQ5Ce-5">
          <mxGeometry x="45" y="100" width="10" height="130" as="geometry" />
        </mxCell>
        <mxCell id="DeTjyNVU-hH-8oNCQ5Ce-18" value="" style="html=1;points=[[0,0,0,0,5],[0,1,0,0,-5],[1,0,0,0,5],[1,1,0,0,-5]];perimeter=orthogonalPerimeter;outlineConnect=0;targetShapes=umlLifeline;portConstraint=eastwest;newEdgeStyle={&quot;curved&quot;:0,&quot;rounded&quot;:0};" vertex="1" parent="DeTjyNVU-hH-8oNCQ5Ce-5">
          <mxGeometry x="45" y="290" width="10" height="130" as="geometry" />
        </mxCell>
        <mxCell id="DeTjyNVU-hH-8oNCQ5Ce-27" value="" style="html=1;points=[[0,0,0,0,5],[0,1,0,0,-5],[1,0,0,0,5],[1,1,0,0,-5]];perimeter=orthogonalPerimeter;outlineConnect=0;targetShapes=umlLifeline;portConstraint=eastwest;newEdgeStyle={&quot;curved&quot;:0,&quot;rounded&quot;:0};" vertex="1" parent="DeTjyNVU-hH-8oNCQ5Ce-5">
          <mxGeometry x="45" y="480" width="10" height="100" as="geometry" />
        </mxCell>
        <mxCell id="DeTjyNVU-hH-8oNCQ5Ce-6" value="Cơ sở dữ liệu hàng" style="shape=umlLifeline;perimeter=lifelinePerimeter;whiteSpace=wrap;html=1;container=1;dropTarget=0;collapsible=0;recursiveResize=0;outlineConnect=0;portConstraint=eastwest;newEdgeStyle={&quot;curved&quot;:0,&quot;rounded&quot;:0};" vertex="1" parent="1">
          <mxGeometry x="1000" y="180" width="100" height="870" as="geometry" />
        </mxCell>
        <mxCell id="DeTjyNVU-hH-8oNCQ5Ce-11" value="" style="html=1;points=[[0,0,0,0,5],[0,1,0,0,-5],[1,0,0,0,5],[1,1,0,0,-5]];perimeter=orthogonalPerimeter;outlineConnect=0;targetShapes=umlLifeline;portConstraint=eastwest;newEdgeStyle={&quot;curved&quot;:0,&quot;rounded&quot;:0};" vertex="1" parent="DeTjyNVU-hH-8oNCQ5Ce-6">
          <mxGeometry x="45" y="110" width="10" height="140" as="geometry" />
        </mxCell>
        <mxCell id="DeTjyNVU-hH-8oNCQ5Ce-20" value="" style="html=1;points=[[0,0,0,0,5],[0,1,0,0,-5],[1,0,0,0,5],[1,1,0,0,-5]];perimeter=orthogonalPerimeter;outlineConnect=0;targetShapes=umlLifeline;portConstraint=eastwest;newEdgeStyle={&quot;curved&quot;:0,&quot;rounded&quot;:0};" vertex="1" parent="DeTjyNVU-hH-8oNCQ5Ce-6">
          <mxGeometry x="45" y="300" width="10" height="100" as="geometry" />
        </mxCell>
        <mxCell id="DeTjyNVU-hH-8oNCQ5Ce-28" value="" style="html=1;points=[[0,0,0,0,5],[0,1,0,0,-5],[1,0,0,0,5],[1,1,0,0,-5]];perimeter=orthogonalPerimeter;outlineConnect=0;targetShapes=umlLifeline;portConstraint=eastwest;newEdgeStyle={&quot;curved&quot;:0,&quot;rounded&quot;:0};" vertex="1" parent="DeTjyNVU-hH-8oNCQ5Ce-6">
          <mxGeometry x="45" y="490" width="10" height="90" as="geometry" />
        </mxCell>
        <mxCell id="DeTjyNVU-hH-8oNCQ5Ce-8" value="nhập từ khóa tìm kiếm hàng( tên hàng )" style="html=1;verticalAlign=bottom;endArrow=block;curved=0;rounded=0;entryX=0.506;entryY=0.124;entryDx=0;entryDy=0;entryPerimeter=0;" edge="1" parent="1" source="DeTjyNVU-hH-8oNCQ5Ce-2" target="DeTjyNVU-hH-8oNCQ5Ce-4">
          <mxGeometry width="80" relative="1" as="geometry">
            <mxPoint x="680" y="410" as="sourcePoint" />
            <mxPoint x="760" y="410" as="targetPoint" />
          </mxGeometry>
        </mxCell>
        <mxCell id="DeTjyNVU-hH-8oNCQ5Ce-10" value="tìm kiếm hàng theo tên" style="html=1;verticalAlign=bottom;endArrow=block;curved=0;rounded=0;entryX=0.533;entryY=0.139;entryDx=0;entryDy=0;entryPerimeter=0;" edge="1" parent="1" source="DeTjyNVU-hH-8oNCQ5Ce-4" target="DeTjyNVU-hH-8oNCQ5Ce-5">
          <mxGeometry width="80" relative="1" as="geometry">
            <mxPoint x="680" y="410" as="sourcePoint" />
            <mxPoint x="760" y="410" as="targetPoint" />
          </mxGeometry>
        </mxCell>
        <mxCell id="DeTjyNVU-hH-8oNCQ5Ce-12" value="truy vấn sản phẩm theo tên" style="html=1;verticalAlign=bottom;endArrow=block;curved=0;rounded=0;entryX=0.496;entryY=0.154;entryDx=0;entryDy=0;entryPerimeter=0;" edge="1" parent="1" source="DeTjyNVU-hH-8oNCQ5Ce-5" target="DeTjyNVU-hH-8oNCQ5Ce-6">
          <mxGeometry width="80" relative="1" as="geometry">
            <mxPoint x="680" y="410" as="sourcePoint" />
            <mxPoint x="760" y="410" as="targetPoint" />
          </mxGeometry>
        </mxCell>
        <mxCell id="DeTjyNVU-hH-8oNCQ5Ce-14" value="danh sách hàng hóa phù hợp" style="html=1;verticalAlign=bottom;endArrow=open;dashed=1;endSize=8;curved=0;rounded=0;entryX=0.56;entryY=0.204;entryDx=0;entryDy=0;entryPerimeter=0;" edge="1" parent="1" source="DeTjyNVU-hH-8oNCQ5Ce-6" target="DeTjyNVU-hH-8oNCQ5Ce-5">
          <mxGeometry relative="1" as="geometry">
            <mxPoint x="760" y="410" as="sourcePoint" />
            <mxPoint x="680" y="410" as="targetPoint" />
          </mxGeometry>
        </mxCell>
        <mxCell id="DeTjyNVU-hH-8oNCQ5Ce-15" value="hiện thị kết quả tìm kiếm" style="html=1;verticalAlign=bottom;endArrow=open;dashed=1;endSize=8;curved=0;rounded=0;entryX=0.524;entryY=0.232;entryDx=0;entryDy=0;entryPerimeter=0;" edge="1" parent="1" source="DeTjyNVU-hH-8oNCQ5Ce-5" target="DeTjyNVU-hH-8oNCQ5Ce-4">
          <mxGeometry relative="1" as="geometry">
            <mxPoint x="760" y="410" as="sourcePoint" />
            <mxPoint x="680" y="410" as="targetPoint" />
          </mxGeometry>
        </mxCell>
        <mxCell id="DeTjyNVU-hH-8oNCQ5Ce-19" value="lọc thèo danh mục" style="html=1;verticalAlign=bottom;endArrow=block;curved=0;rounded=0;entryX=0.542;entryY=0.366;entryDx=0;entryDy=0;entryPerimeter=0;" edge="1" parent="1" source="DeTjyNVU-hH-8oNCQ5Ce-4" target="DeTjyNVU-hH-8oNCQ5Ce-5">
          <mxGeometry width="80" relative="1" as="geometry">
            <mxPoint x="680" y="550" as="sourcePoint" />
            <mxPoint x="760" y="550" as="targetPoint" />
          </mxGeometry>
        </mxCell>
        <mxCell id="DeTjyNVU-hH-8oNCQ5Ce-21" value="truy vấn danh&amp;nbsp; mục" style="html=1;verticalAlign=bottom;endArrow=block;curved=0;rounded=0;entryX=0.524;entryY=0.378;entryDx=0;entryDy=0;entryPerimeter=0;" edge="1" parent="1" source="DeTjyNVU-hH-8oNCQ5Ce-5" target="DeTjyNVU-hH-8oNCQ5Ce-6">
          <mxGeometry width="80" relative="1" as="geometry">
            <mxPoint x="680" y="550" as="sourcePoint" />
            <mxPoint x="760" y="550" as="targetPoint" />
          </mxGeometry>
        </mxCell>
        <mxCell id="DeTjyNVU-hH-8oNCQ5Ce-22" value="danh mục hàng phù hợp" style="html=1;verticalAlign=bottom;endArrow=open;dashed=1;endSize=8;curved=0;rounded=0;entryX=0.487;entryY=0.423;entryDx=0;entryDy=0;entryPerimeter=0;" edge="1" parent="1" source="DeTjyNVU-hH-8oNCQ5Ce-6" target="DeTjyNVU-hH-8oNCQ5Ce-5">
          <mxGeometry relative="1" as="geometry">
            <mxPoint x="760" y="550" as="sourcePoint" />
            <mxPoint x="680" y="550" as="targetPoint" />
          </mxGeometry>
        </mxCell>
        <mxCell id="DeTjyNVU-hH-8oNCQ5Ce-23" value="két quả lọc" style="html=1;verticalAlign=bottom;endArrow=open;dashed=1;endSize=8;curved=0;rounded=0;entryX=0.506;entryY=0.453;entryDx=0;entryDy=0;entryPerimeter=0;" edge="1" parent="1" source="DeTjyNVU-hH-8oNCQ5Ce-5" target="DeTjyNVU-hH-8oNCQ5Ce-4">
          <mxGeometry relative="1" as="geometry">
            <mxPoint x="760" y="550" as="sourcePoint" />
            <mxPoint x="680" y="550" as="targetPoint" />
          </mxGeometry>
        </mxCell>
        <mxCell id="DeTjyNVU-hH-8oNCQ5Ce-25" value="chon danh mục nhóm hàng/ ngành hàng" style="html=1;verticalAlign=bottom;endArrow=block;curved=0;rounded=0;entryX=0.506;entryY=0.358;entryDx=0;entryDy=0;entryPerimeter=0;" edge="1" parent="1" source="DeTjyNVU-hH-8oNCQ5Ce-2" target="DeTjyNVU-hH-8oNCQ5Ce-4">
          <mxGeometry width="80" relative="1" as="geometry">
            <mxPoint x="280" y="360" as="sourcePoint" />
            <mxPoint x="571" y="360" as="targetPoint" />
          </mxGeometry>
        </mxCell>
        <mxCell id="DeTjyNVU-hH-8oNCQ5Ce-29" value="chọn theo giá" style="html=1;verticalAlign=bottom;endArrow=block;curved=0;rounded=0;entryX=0.551;entryY=0.579;entryDx=0;entryDy=0;entryPerimeter=0;" edge="1" parent="1" source="DeTjyNVU-hH-8oNCQ5Ce-2" target="DeTjyNVU-hH-8oNCQ5Ce-4">
          <mxGeometry width="80" relative="1" as="geometry">
            <mxPoint x="680" y="570" as="sourcePoint" />
            <mxPoint x="760" y="570" as="targetPoint" />
          </mxGeometry>
        </mxCell>
        <mxCell id="DeTjyNVU-hH-8oNCQ5Ce-30" value="lọc theo giá" style="html=1;verticalAlign=bottom;endArrow=block;curved=0;rounded=0;entryX=0.551;entryY=0.58;entryDx=0;entryDy=0;entryPerimeter=0;" edge="1" parent="1" source="DeTjyNVU-hH-8oNCQ5Ce-4" target="DeTjyNVU-hH-8oNCQ5Ce-5">
          <mxGeometry x="0.0049" width="80" relative="1" as="geometry">
            <mxPoint x="680" y="570" as="sourcePoint" />
            <mxPoint x="760" y="570" as="targetPoint" />
            <mxPoint as="offset" />
          </mxGeometry>
        </mxCell>
        <mxCell id="DeTjyNVU-hH-8oNCQ5Ce-31" value="truy vấn theo giá" style="html=1;verticalAlign=bottom;endArrow=block;curved=0;rounded=0;entryX=0.469;entryY=0.591;entryDx=0;entryDy=0;entryPerimeter=0;" edge="1" parent="1" source="DeTjyNVU-hH-8oNCQ5Ce-5" target="DeTjyNVU-hH-8oNCQ5Ce-6">
          <mxGeometry width="80" relative="1" as="geometry">
            <mxPoint x="680" y="570" as="sourcePoint" />
            <mxPoint x="760" y="570" as="targetPoint" />
          </mxGeometry>
        </mxCell>
        <mxCell id="DeTjyNVU-hH-8oNCQ5Ce-32" value="danh mục lọc theo giá" style="html=1;verticalAlign=bottom;endArrow=open;dashed=1;endSize=8;curved=0;rounded=0;entryX=0.555;entryY=0.716;entryDx=0;entryDy=0;entryPerimeter=0;" edge="1" parent="1" source="DeTjyNVU-hH-8oNCQ5Ce-6" target="DeTjyNVU-hH-8oNCQ5Ce-27">
          <mxGeometry relative="1" as="geometry">
            <mxPoint x="760" y="570" as="sourcePoint" />
            <mxPoint x="680" y="570" as="targetPoint" />
          </mxGeometry>
        </mxCell>
        <mxCell id="DeTjyNVU-hH-8oNCQ5Ce-33" value="kết quả lọc" style="html=1;verticalAlign=bottom;endArrow=open;dashed=1;endSize=8;curved=0;rounded=0;entryX=0.373;entryY=0.85;entryDx=0;entryDy=0;entryPerimeter=0;" edge="1" parent="1" source="DeTjyNVU-hH-8oNCQ5Ce-5" target="DeTjyNVU-hH-8oNCQ5Ce-26">
          <mxGeometry relative="1" as="geometry">
            <mxPoint x="760" y="570" as="sourcePoint" />
            <mxPoint x="680" y="570" as="targetPoint" />
          </mxGeometry>
        </mxCell>
      </root>
    </mxGraphModel>
  </diagram>
</mxfile>
